<svg xmlns="http://www.w3.org/2000/svg" width="383.788" height="191.623" viewBox="0 0 383.788 191.623">
  <g id="Group_199" data-name="Group 199" transform="translate(4.014 0.551)">
    <path id="Path_11567" data-name="Path 11567" d="M-569.645,72.821s111.613-13.949,132.9,63.18,45.161-84.513,84.516-9.846,53.549,50.872,74.194,20.513,21.936,4.923,37.419,25.436,47.1-16.41,47.1-16.41" transform="translate(559.543 -27.661) rotate(-4)" fill="none" stroke="rgba(255,255,255,0.1)" stroke-width="2"/>
    <path id="Path_11568" data-name="Path 11568" d="M-569.645,72.821s111.613-13.949,132.9,63.18,45.161-84.513,84.516-9.846,53.549,50.872,74.194,20.513,21.936,4.923,37.419,25.436,47.1-16.41,47.1-16.41" transform="translate(559.426 -56.661) rotate(-4)" fill="none" stroke="rgba(255,255,255,0.1)" stroke-width="2"/>
    <path id="Path_11569" data-name="Path 11569" d="M-569.645,72.821s111.613-13.949,132.9,63.18,45.161-84.513,84.516-9.846,53.549,50.872,74.194,20.513,21.936,4.923,37.419,25.436,47.1-16.41,47.1-16.41" transform="translate(559.426 -84.661) rotate(-4)" fill="none" stroke="rgba(255,255,255,0.1)" stroke-width="2"/>
  </g>
</svg>
