<svg xmlns="http://www.w3.org/2000/svg" width="451.164" height="450.062" viewBox="0 0 451.164 450.062">
  <g id="Group_304" data-name="Group 304" transform="translate(37.72 -150.463)">
    <path id="Polygon_1" data-name="Polygon 1" d="M58,0l58,100H0Z" transform="translate(227.362 480.228) rotate(11)" fill="#d35d6e"/>
    <rect id="Rectangle_40" data-name="Rectangle 40" width="137" height="80" transform="matrix(0.588, 0.809, -0.809, 0.588, 138.597, 418.071)" fill="#fff"/>
    <circle id="Ellipse_17" data-name="Ellipse 17" cx="38.5" cy="38.5" r="38.5" transform="translate(208 394)" fill="#efb08c"/>
    <path id="Path_40" data-name="Path 40" d="M-569.645,72.821S-438.656,58.872-413.669,136s53-84.513,99.189-9.846,62.845,50.872,87.074,20.513,25.744,4.923,43.916,25.436,55.273-16.41,55.273-16.41" transform="matrix(0.848, -0.53, 0.53, 0.848, 417.352, 22.819)" fill="none" stroke="#fff" stroke-width="2"/>
    <path id="Path_41" data-name="Path 41" d="M-569.645,72.821S-438.656,58.872-413.669,136s53-84.513,99.189-9.846,62.845,50.872,87.074,20.513,25.744,4.923,43.916,25.436,55.273-16.41,55.273-16.41" transform="matrix(0.995, 0.105, -0.105, 0.995, 547.663, 428.878)" fill="none" stroke="#fff" stroke-width="2"/>
  </g>
</svg>
