<svg xmlns="http://www.w3.org/2000/svg" width="60" height="60" viewBox="0 0 60 60">
  <g id="Group_187" data-name="Group 187" transform="translate(-14 -398)">
    <circle id="Ellipse_73" data-name="Ellipse 73" cx="30" cy="30" r="30" transform="translate(14 398)" fill="#456463"/>
    <g id="book" transform="translate(-29 412)">
      <path id="Path_67" data-name="Path 67" d="M84.437,28.25a.938.938,0,0,0,.938-.937V2.938A.938.938,0,0,0,84.437,2H75.565A3.753,3.753,0,0,0,72.25,0H69.437A.938.938,0,0,0,68.5.938V2H63.813A2.816,2.816,0,0,0,61,4.813V29.188A2.816,2.816,0,0,0,63.813,32H84.437a.938.938,0,1,0,0-1.875H83.5V28.25ZM83.5,26.375h-8A3.725,3.725,0,0,0,76,24.5V22.625h4.687a.937.937,0,1,0,0-1.875H76V18.875h4.687a.938.938,0,1,0,0-1.875H76V15.125h4.687a.938.938,0,1,0,0-1.875H76V11.375h4.687a.938.938,0,0,0,.938-.937V6.688a.938.938,0,0,0-.938-.938H76V3.875h7.5ZM76,7.625h3.75V9.5H76Zm-5.625-5.75H72.25A1.89,1.89,0,0,1,74.125,3.75v17.5a3.726,3.726,0,0,0-1.875-.5H70.375Zm-6.562,2H68.5V21.688a.938.938,0,0,0,.937.937H72.25a1.875,1.875,0,0,1,0,3.75H63.813a2.8,2.8,0,0,0-.938.161V4.813A.939.939,0,0,1,63.813,3.875Zm17.812,26.25H63.813a.938.938,0,1,1,0-1.875H81.625Z" transform="translate(0)" fill="#fff"/>
    </g>
  </g>
</svg>
