<svg xmlns="http://www.w3.org/2000/svg" width="60" height="60" viewBox="0 0 60 60">
  <g id="Group_184" data-name="Group 184" transform="translate(-301 -398)">
    <circle id="Ellipse_10" data-name="Ellipse 10" cx="30" cy="30" r="30" transform="translate(301 398)" fill="#d35d6e"/>
    <g id="bill" transform="translate(289.995 412)">
      <g id="Group_122" data-name="Group 122" transform="translate(27.005 0)">
        <g id="Group_121" data-name="Group 121" transform="translate(0 0)">
          <path id="Path_95" data-name="Path 95" d="M54.264,15.375h-4.5V.625a.626.626,0,0,0-.376-.577.6.6,0,0,0-.663.135L47,1.954,45.274.183a.6.6,0,0,0-.861,0L42.69,1.954,40.967.183a.6.6,0,0,0-.861,0l-1.724,1.77L36.659.183a.6.6,0,0,0-.861,0l-1.724,1.77L32.351.183a.6.6,0,0,0-.861,0l-1.724,1.77L28.043.183a.6.6,0,0,0-.856,0A.632.632,0,0,0,27,.642V28.75A3.211,3.211,0,0,0,30.169,32h21.54a3.211,3.211,0,0,0,3.164-3.25V16A.617.617,0,0,0,54.264,15.375ZM30.169,30.75a1.976,1.976,0,0,1-1.947-2V2.135L29.336,3.28a.6.6,0,0,0,.861,0l1.724-1.77,1.724,1.77a.6.6,0,0,0,.861,0l1.724-1.77,1.724,1.77a.6.6,0,0,0,.861,0l1.724-1.77L42.26,3.28a.6.6,0,0,0,.861,0l1.724-1.77,1.724,1.77a.6.6,0,0,0,.861,0l1.115-1.145V16c0,.006,0,.011,0,.017V28.75a3.289,3.289,0,0,0,.673,2H30.169Zm23.487-2a1.948,1.948,0,1,1-3.894,0V16.625h3.894Z" transform="translate(-27.005 0)" fill="#fff"/>
        </g>
      </g>
      <g id="Group_124" data-name="Group 124" transform="translate(36.071 5.848)">
        <g id="Group_123" data-name="Group 123" transform="translate(0)">
          <path id="Path_96" data-name="Path 96" d="M178.308,96.55a.949.949,0,1,1,1.1-.938.608.608,0,0,0,1.217,0,2.189,2.189,0,0,0-1.7-2.078v-.412a.608.608,0,1,0-1.217,0v.412a2.189,2.189,0,0,0-1.7,2.078,2.24,2.24,0,0,0,2.312,2.155.949.949,0,1,1-1.1.938.608.608,0,1,0-1.217,0,2.189,2.189,0,0,0,1.7,2.078v.5a.608.608,0,0,0,1.217,0v-.5a2.189,2.189,0,0,0,1.7-2.078A2.24,2.24,0,0,0,178.308,96.55Z" transform="translate(-175.996 -92.513)" fill="#fff"/>
        </g>
      </g>
      <g id="Group_126" data-name="Group 126" transform="translate(42.702 9.939)">
        <g id="Group_125" data-name="Group 125">
          <path id="Path_97" data-name="Path 97" d="M286.765,158.856h-1.186a.608.608,0,1,0,0,1.217h1.186a.608.608,0,0,0,0-1.217Z" transform="translate(-284.971 -158.856)" fill="#fff"/>
        </g>
      </g>
      <g id="Group_128" data-name="Group 128" transform="translate(31.661 9.939)">
        <g id="Group_127" data-name="Group 127" transform="translate(0)">
          <path id="Path_98" data-name="Path 98" d="M105.324,158.856h-1.186a.608.608,0,1,0,0,1.217h1.186a.608.608,0,1,0,0-1.217Z" transform="translate(-103.53 -158.856)" fill="#fff"/>
        </g>
      </g>
      <g id="Group_130" data-name="Group 130" transform="translate(34.556 16.894)">
        <g id="Group_129" data-name="Group 129" transform="translate(0)">
          <path id="Path_99" data-name="Path 99" d="M161.345,270.007h-9.64a.608.608,0,0,0,0,1.217h9.64a.608.608,0,1,0,0-1.217Z" transform="translate(-151.097 -270.007)" fill="#fff"/>
        </g>
      </g>
      <g id="Group_132" data-name="Group 132" transform="translate(31.353 16.894)">
        <g id="Group_131" data-name="Group 131" transform="translate(0)">
          <path id="Path_100" data-name="Path 100" d="M99.507,270.185a.608.608,0,1,0,.178.43A.613.613,0,0,0,99.507,270.185Z" transform="translate(-98.468 -270.007)" fill="#fff"/>
        </g>
      </g>
      <g id="Group_134" data-name="Group 134" transform="translate(34.556 21.023)">
        <g id="Group_133" data-name="Group 133" transform="translate(0)">
          <path id="Path_101" data-name="Path 101" d="M161.345,336.005h-9.64a.608.608,0,1,0,0,1.217h9.64a.608.608,0,1,0,0-1.217Z" transform="translate(-151.097 -336.005)" fill="#fff"/>
        </g>
      </g>
      <g id="Group_136" data-name="Group 136" transform="translate(31.353 21.023)">
        <g id="Group_135" data-name="Group 135" transform="translate(0)">
          <path id="Path_102" data-name="Path 102" d="M99.507,336.183a.608.608,0,1,0,.178.43A.613.613,0,0,0,99.507,336.183Z" transform="translate(-98.468 -336.005)" fill="#fff"/>
        </g>
      </g>
      <g id="Group_138" data-name="Group 138" transform="translate(34.556 25.152)">
        <g id="Group_137" data-name="Group 137" transform="translate(0)">
          <path id="Path_103" data-name="Path 103" d="M161.345,402h-9.64a.608.608,0,0,0,0,1.217h9.64a.608.608,0,1,0,0-1.217Z" transform="translate(-151.097 -402.003)" fill="#fff"/>
        </g>
      </g>
      <g id="Group_140" data-name="Group 140" transform="translate(31.353 25.152)">
        <g id="Group_139" data-name="Group 139" transform="translate(0)">
          <path id="Path_104" data-name="Path 104" d="M99.507,402.181a.608.608,0,1,0,.178.43A.613.613,0,0,0,99.507,402.181Z" transform="translate(-98.468 -402.003)" fill="#fff"/>
        </g>
      </g>
    </g>
  </g>
</svg>
