<svg xmlns="http://www.w3.org/2000/svg" width="60" height="60" viewBox="0 0 60 60">
  <g id="Group_185" data-name="Group 185" transform="translate(-206 -398)">
    <circle id="Ellipse_75" data-name="Ellipse 75" cx="30" cy="30" r="30" transform="translate(206 398)" fill="#efb08c"/>
    <path id="cloudy-night" d="M31.747,43.656a.938.938,0,0,0-.923-.266,7.931,7.931,0,0,1-3.922.025,7.925,7.925,0,0,1-5.6-10.225.937.937,0,0,0-1.128-1.205A9.811,9.811,0,0,0,12.929,42.6,4.866,4.866,0,0,0,9.72,44.926a4.066,4.066,0,0,0-6.028,2.251,4.066,4.066,0,0,0-.012,8.1,4.063,4.063,0,0,0,6.056,2.282,4.873,4.873,0,0,0,8.4,0,4.063,4.063,0,0,0,6.056-2.282A4.062,4.062,0,0,0,27.651,49.9a9.832,9.832,0,0,0,4.3-5.3.937.937,0,0,0-.2-.939ZM25.26,52.868a2.2,2.2,0,0,1-1.725.533.938.938,0,0,0-1.051.866A2.2,2.2,0,0,1,20.3,56.3a2.173,2.173,0,0,1-1.767-.895.937.937,0,0,0-1.669.347,3,3,0,0,1-5.85,0,.937.937,0,0,0-1.669-.347,2.173,2.173,0,0,1-1.766.895,2.2,2.2,0,0,1-2.186-2.037A.938.938,0,0,0,4.34,53.4a2.2,2.2,0,0,1-1.725-.533,2.162,2.162,0,0,1-.74-1.641,2.194,2.194,0,0,1,2.191-2.191,2.236,2.236,0,0,1,.276.017A.937.937,0,0,0,5.393,48.2a2.2,2.2,0,0,1,2.184-2.01,2.174,2.174,0,0,1,1.762.889.938.938,0,0,0,1.669-.356,3,3,0,0,1,5.859,0,.938.938,0,0,0,1.669.356,2.174,2.174,0,0,1,1.762-.889,2.2,2.2,0,0,1,2.184,2.01.937.937,0,0,0,1.051.854,2.2,2.2,0,0,1,1.727.532,2.191,2.191,0,0,1,0,3.283Zm1.385-4.554c-.047-.046-.1-.091-.145-.135a4.071,4.071,0,0,0-2.317-1,4.063,4.063,0,0,0-6.028-2.252,4.865,4.865,0,0,0-3.339-2.35,7.934,7.934,0,0,1,4.289-8.193A9.8,9.8,0,0,0,29.484,45.5a7.975,7.975,0,0,1-2.839,2.813Z" transform="translate(220 382.047)" fill="#fff"/>
  </g>
</svg>
