<svg id="Layer_2" data-name="Layer 2" xmlns="http://www.w3.org/2000/svg" width="164.87" height="26.55" viewBox="0 0 164.87 26.55">
  <g id="Layer_1" data-name="Layer 1">
    <path id="Path_11584" data-name="Path 11584" d="M14.62,0l2.13,2.82,4.88,6.44,1.1,1.46h9.56L44.27,26.55h9.2L33.38,0Z" fill="#4c6363"/>
    <path id="Path_11585" data-name="Path 11585" d="M65.66,24.7c-3.46,0-6.12-1.89-6.12-4.95h3a2.76,2.76,0,0,0,3.08,2.56c2,0,3.1-1.07,3.1-2.54,0-4.17-9.17-1.46-9.17-7.83C59.59,8.91,62,7,65.53,7c3.31,0,5.64,1.74,5.89,4.7H68.29a2.71,2.71,0,0,0-2.91-2.29c-1.64,0-2.9.75-2.9,2.42,0,3.9,9.14,1.46,9.14,7.78C71.62,22.21,69.51,24.7,65.66,24.7Z" fill="#4c6363"/>
    <path id="Path_11586" data-name="Path 11586" d="M80.92,24.75c-3.91,0-6.86-2.79-6.86-7.09a7,7,0,0,1,14,0,6.87,6.87,0,0,1-7.14,7.09Zm0-2.46c2.11,0,4.2-1.52,4.2-4.63s-2-4.6-4.13-4.6-4,1.5-4,4.6S78.78,22.29,80.92,22.29Z" fill="#4c6363"/>
    <path id="Path_11587" data-name="Path 11587" d="M90.83,6.13h2.84V24.52H90.83Z" fill="#4c6363"/>
    <path id="Path_11588" data-name="Path 11588" d="M109.8,24.52H107V22.88a5.08,5.08,0,0,1-4,1.84c-3.2,0-5.64-2-5.64-5.84v-8h2.81v7.63c0,2.51,1.37,3.8,3.43,3.8S107,21,107,18.46V10.83h2.84Z" fill="#4c6363"/>
    <path id="Path_11589" data-name="Path 11589" d="M118.5,24.75c-3.29,0-5.6-1.94-5.72-4.43h2.93a2.5,2.5,0,0,0,2.74,2c1.64,0,2.51-.7,2.51-1.64,0-2.69-8-1.14-8-6.16,0-2.19,2-4,5.27-4s5.15,1.67,5.3,4.4h-2.84a2.27,2.27,0,0,0-2.56-2c-1.51,0-2.31.62-2.31,1.54,0,2.76,7.73,1.22,7.88,6.16C123.74,23,121.73,24.75,118.5,24.75Z" fill="#4c6363"/>
    <path id="Path_11590" data-name="Path 11590" d="M126.42,7.2a1.8,1.8,0,1,1,.534,1.28,1.81,1.81,0,0,1-.534-1.28Zm.38,3.63h2.83V24.52H126.8Z" fill="#4c6363"/>
    <path id="Path_11591" data-name="Path 11591" d="M143.9,17.34h-6.62v7.18H133V7.07h4.25v6.84h6.62V7.07h4.25V24.52H143.9Z" fill="#b71540"/>
    <path id="Path_11592" data-name="Path 11592" d="M158.33,7.07c4.28,0,6.42,2.46,6.42,5.5a5.08,5.08,0,0,1-3.88,5l4,6.91h-4.8l-3.63-6.58h-1v6.58H151.2V7.07Zm-.24,3.53h-2.64v4.33h2.64c1.59,0,2.33-.82,2.33-2.19S159.68,10.6,158.09,10.6Z" fill="#b71540"/>
    <path id="Path_11593" data-name="Path 11593" d="M22.73,10.72,33.38,0,32.29,10.72Z" fill="#5c7c7b"/>
    <path id="Path_11594" data-name="Path 11594" d="M38.85,26.55l-2.13-2.82-4.88-6.44-1.1-1.46H21.18L9.2,0H0L20.09,26.55Z" fill="#b71540"/>
    <path id="Path_11595" data-name="Path 11595" d="M30.74,15.83,20.09,26.55l1.09-10.72Z" fill="#c13a64"/>
  </g>
</svg>
